# xmcd
#
# Track frame offsets: 
#        150
#        53002
#        89340
#        118977
#        148188
#        156433
#        201684
#        221130
#        243258
#        271638
#        304638
#        326545
#        333591
#
# Disc length: 4615 seconds
#
# Revision: 7
# Processed by: cddbd v1.5.2PL0 Copyright (c) Steve Scherf et al.
# Submitted via: ExactAudioCopy v1.0b3
#
DISCID=c912050d
DTITLE=Various Artist - Beethoven Edition cd 45 - Music for String En
DTITLE=sembles  II
DYEAR=2004
DGENRE=Chamber Music
TTITLE0=Zurich String Quintet - String Quintet in E flat  Op.4 - I. Al
TTITLE0=legro con brio
TTITLE1=Zurich String Quintet - String Quintet in E flat  Op.4 - II. A
TTITLE1=ndante
TTITLE2=Zurich String Quintet - String Quintet in E flat  Op.4 - III. 
TTITLE2=Menuetto
TTITLE3=Zurich String Quintet - String Quintet in E flat  Op.4 - IV. F
TTITLE3=inale, presto
TTITLE4=Zurich String Quintet - Fuge for String Quintet, in D  Op.137
TTITLE5=Zurich String Quintet - Duet for viola and cello in E flat WoO
TTITLE5=32 - 1. movement 1
TTITLE6=Zurich String Quintet - Duet for viola and cello in E flat WoO
TTITLE6=32 - II. Minuetto
TTITLE7=Zurich String Quintet - Sechs Landlerische Tanze for 2 violins
TTITLE7=, cello and double-bass  WoO 15
TTITLE8=Perez Quartet - Prelude and Fugue in E minor for 2 violins and
TTITLE8=cello, Hess 29
TTITLE9=Perez Quartet - Prelude and Fugue in F for string quartet, Hes
TTITLE9=s 30
TTITLE10=Perez Quartet - Prelude and Fugue in C for string quartet, He
TTITLE10=ss 31
TTITLE11=Perez Quartet - Menuet for string quartet, Hess 33
TTITLE12=Perez Quartet - Prelude for string quartet, Hess 40
EXTD=YEAR: 2004
EXTT0=
EXTT1=
EXTT2=
EXTT3=
EXTT4=
EXTT5=
EXTT6=
EXTT7=
EXTT8=
EXTT9=
EXTT10=
EXTT11=
EXTT12=
PLAYORDER=
